<svg xmlns="http://www.w3.org/2000/svg" viewBox="0 0 900 240">
  <defs>
    <linearGradient id="b" x1="0%" y1="0%" x2="100%" y2="100%">
      <stop offset="0%" stop-color="#F8F0E5"/>
      <stop offset="100%" stop-color="#EDE1CE"/>
    </linearGradient>
    <linearGradient id="w" x1="0%" y1="0%" x2="100%" y2="0%">
      <stop offset="0%" stop-color="#E2C7AA" stop-opacity=".5"/>
      <stop offset="100%" stop-color="#A0876E" stop-opacity=".1"/>
    </linearGradient>
  </defs>
  <rect width="900" height="240" fill="url(#b)" rx="16"/>
  <path d="M0 160 Q150 130 300 160 Q450 190 600 160 Q750 130 900 160" fill="none" stroke="#E2C7AA" stroke-width="2" opacity=".4"/>
  <path d="M0 200 Q150 170 300 200 Q450 230 600 200 Q750 170 900 200 L900 240 L0 240Z" fill="url(#w)"/>
  <path d="M0 180 Q200 160 400 180 Q600 200 800 180 Q850 175 900 180" fill="none" stroke="#E2C7AA" stroke-width="1.5" opacity=".3"/>
  <path d="M0 215 Q120 195 240 215 Q360 235 480 215 Q600 195 720 215 Q840 235 900 215 L900 240 L0 240Z" fill="#A0876E" opacity=".08"/>
  <circle cx="450" cy="80" r="3" fill="#7A5234"/>
  <text x="450" y="120" font-family="Georgia,'Times New Roman',serif" font-size="42" fill="#583A22" text-anchor="middle" font-weight="bold">Miguel Zager Gobbo</text>
  <text x="450" y="155" font-family="Arial,Helvetica,sans-serif" font-size="14" fill="#7A5234" text-anchor="middle" letter-spacing="3.5" font-weight="600">ENGENHARIA DE SOFTWARE • BACKEND &amp; SISTEMAS</text>
</svg>
